<svg xmlns="http://www.w3.org/2000/svg" style="display: none;">
  <!-- 左侧导航图标 -->
  <symbol id="icon-template" viewBox="0 0 20 20">
    <path fill="currentColor" d="M10 2a8 8 0 100 16 8 8 0 000-16zm0 2a6 6 0 110 12 6 6 0 010-12zm0 2a4 4 0 100 8 4 4 0 000-8z"/>
  </symbol>
  <symbol id="icon-project" viewBox="0 0 20 20">
    <path fill="currentColor" d="M2 6a2 2 0 012-2h5l2 2h5a2 2 0 012 2v8a2 2 0 01-2 2H4a2 2 0 01-2-2V6zm2 2v8h12V8H4zm2-2h8l-2-2H6z"/>
  </symbol>
  <symbol id="icon-archive" viewBox="0 0 20 20">
    <path fill="currentColor" d="M4 4h12a2 2 0 012 2v1a2 2 0 01-2 2H4a2 2 0 01-2-2V6a2 2 0 012-2zm0 10h12a2 2 0 012 2v2a2 2 0 01-2 2H4a2 2 0 01-2-2v-2a2 2 0 012-2zm2-4h8a1 1 0 011 1v6a1 1 0 01-1 1H6a1 1 0 01-1-1v-6a1 1 0 011-1z"/>
  </symbol>
  
  <!-- 树节点图标 -->
  <symbol id="icon-expand" viewBox="0 0 20 20">
    <path fill="currentColor" d="M5 10l5 5 5-5H5z"/>
  </symbol>
  <symbol id="icon-collapse" viewBox="0 0 20 20">
    <path fill="currentColor" d="M10 5l5 5-5 5V5z"/>
  </symbol>
  <symbol id="icon-check" viewBox="0 0 20 20">
    <path fill="currentColor" d="M16.707 5.293a1 1 0 010 1.414l-8 8a1 1 0 01-1.414 0l-4-4a1 1 0 011.414-1.414L8 12.586l7.293-7.293a1 1 0 011.414 0z"/>
  </symbol>
  
  <!-- 操作图标 -->
  <symbol id="icon-add" viewBox="0 0 20 20">
    <path fill="currentColor" d="M10 3a1 1 0 011 1v5h5a1 1 0 110 2h-5v5a1 1 0 11-2 0v-5H4a1 1 0 110-2h5V4a1 1 0 011-1z"/>
  </symbol>
  <symbol id="icon-delete" viewBox="0 0 20 20">
    <path fill="currentColor" d="M10 2a8 8 0 100 16 8 8 0 000-16zm0 2a6 6 0 110 12 6 6 0 010-12zm2 3a1 1 0 011 1v4a1 1 0 11-2 0V8a1 1 0 011-1z"/>
  </symbol>
  <symbol id="icon-play" viewBox="0 0 20 20">
    <path fill="currentColor" d="M6 4l10 6-10 6V4z"/>
  </symbol>
  <symbol id="icon-pause" viewBox="0 0 20 20">
    <path fill="currentColor" d="M6 4h4v12H6V4zm6 0h4v12h-4V4z"/>
  </symbol>
  <symbol id="icon-stop" viewBox="0 0 20 20">
    <path fill="currentColor" d="M4 4h12v12H4V4z"/>
  </symbol>
  
  <!-- 通用图标 -->
  <symbol id="icon-search" viewBox="0 0 20 20">
    <path fill="currentColor" d="M12.9 14.32a8 8 0 111.41-1.41l5.35 5.33-1.42 1.42-5.33-5.35zM8 14A6 6 0 108 2a6 6 0 000 12z"/>
  </symbol>
  <symbol id="icon-export" viewBox="0 0 20 20">
    <path fill="currentColor" d="M10 2a8 8 0 100 16 8 8 0 000-16zm0 2a6 6 0 110 12 6 6 0 010-12zm0 3a1 1 0 011 1v3a1 1 0 01-2 0V8a1 1 0 011-1zm0 8a1 1 0 110-2 1 1 0 010 2z"/>
  </symbol>
  <symbol id="icon-import" viewBox="0 0 20 20">
    <path fill="currentColor" d="M10 2a8 8 0 100 16 8 8 0 000-16zm0 2a6 6 0 110 12 6 6 0 010-12zm0 5a1 1 0 011 1v3a1 1 0 01-2 0V8a1 1 0 011-1z"/>
  </symbol>
</svg>